<svg width="118" height="48" viewBox="0 0 118 48" fill="none" xmlns="http://www.w3.org/2000/svg">
<g clip-path="url(#clip0_1_461)">
<path fill-rule="evenodd" clip-rule="evenodd" d="M43.7979 0.245361H33.1543C32.9096 0.245361 32.7261 0.429395 32.6649 0.613429L26.4255 23.863C26.3644 23.9857 26.3032 24.047 26.1809 24.047H15.4761C15.2926 24.047 15.1702 23.863 15.2314 23.7403L18.1676 12.8823C18.2287 12.5143 17.9841 12.2075 17.6782 12.2075H7.03458C6.7899 12.2075 6.60639 12.3916 6.54522 12.5756L0.428198 35.2731C0.367028 35.6411 0.611709 35.9479 0.91756 35.9479H11.5612C11.8059 35.9479 11.9894 35.7638 12.0505 35.5798L14.9255 24.7832C14.9255 24.6605 15.109 24.6605 15.109 24.7832L21.2261 47.4806C21.2872 47.726 21.4708 47.8487 21.7154 47.8487H32.4202C32.7872 47.8487 33.0319 47.542 32.9096 47.1739L26.7314 24.1697C26.7314 24.1084 26.7926 24.047 26.8537 24.047H37.6809C37.9255 24.047 38.1091 23.863 38.1702 23.679L44.2872 0.981496C44.4096 0.613429 44.1037 0.245361 43.7979 0.245361Z" fill="#E31E24"/>
<path d="M53.7686 24.047L51.9335 20.3663L50.9548 21.2251L50.2208 24.047H48.2633L50.6489 14.7839H52.6676L51.5665 18.894L55.9096 14.7839H58.3564L53.5239 19.1394L56.1543 24.047H53.7686Z" fill="#1F1F1E"/>
<path d="M62.8218 16.747L60.3138 20.7344H63.1888L62.8218 16.747ZM63.4335 24.047L63.25 22.452H59.3351L58.3564 24.047H56.0931L62.0878 14.7839H64.5346L65.6968 24.047H63.4335Z" fill="#1F1F1E"/>
<path d="M72.9149 24.047L73.8936 20.1823H69.5505L68.5106 24.047H66.5532L69 14.7839H70.9574L69.9787 18.4033H74.383L75.3005 14.7839H77.3191L74.8723 24.047H72.9149Z" fill="#1F1F1E"/>
<path d="M85.9441 16.747L83.4362 20.7344H86.3112L85.9441 16.747ZM86.617 24.047L86.4335 22.452H82.4574L81.4787 24.047H79.2154L85.2101 14.7839H87.6569L88.8191 24.047H86.617Z" fill="#1F1F1E"/>
<path d="M96.9548 17.4831C97.0771 16.8696 96.8324 16.4402 96.1596 16.4402H93.7128L93.1622 18.4646H95.609C96.2819 18.4646 96.7713 18.0965 96.9548 17.4831ZM96.1596 21.2865C96.3431 20.673 96.0372 20.1823 95.242 20.1823H92.734L92.1835 22.3293H94.6915C95.4255 22.3293 95.9761 21.9612 96.1596 21.2865ZM89.7367 24.047L92.1835 14.7839H97.0771C98.8511 14.7839 99.4628 15.8881 99.0957 17.1764C98.7899 18.3419 97.8723 19.1394 96.9548 19.3234C97.8723 19.4461 98.4229 20.4276 98.117 21.5932C97.75 23.0041 96.5266 24.1083 94.7527 24.1083H89.7367V24.047Z" fill="#1F1F1E"/>
<path d="M100.87 24.047L102.827 16.5016H100.136L100.564 14.7839H107.965L107.476 16.5016H104.785L102.827 24.047H100.87Z" fill="#1F1F1E"/>
<path d="M114.816 19.4462C115.245 17.7286 114.511 16.379 112.798 16.379C111.085 16.379 109.678 17.6673 109.189 19.4462C108.761 21.1639 109.495 22.5135 111.207 22.5135C112.92 22.4521 114.388 21.1639 114.816 19.4462ZM107.231 19.4462C107.965 16.6244 110.535 14.6614 113.287 14.6614C116.101 14.6614 117.63 16.6857 116.896 19.4462C116.162 22.2681 113.593 24.2311 110.779 24.2311C107.965 24.2311 106.497 22.2067 107.231 19.4462Z" fill="#1F1F1E"/>
<path d="M46.3058 31.3471L47.2846 27.7278H49.7314L49.5479 28.3412H47.7739L46.9787 31.3471H46.3058Z" fill="#E31E24"/>
<path d="M51.5665 29.5681C51.8723 29.5681 52.0559 29.3841 52.1782 28.9547C52.3005 28.5253 52.1782 28.2799 51.9335 28.2799H50.8936L50.5878 29.5681H51.5665ZM49.4255 31.3471L50.4043 27.7278H52.3005C53.0346 27.7278 53.1569 28.2799 52.9734 28.9547C52.7899 29.5681 52.3617 30.1202 51.6888 30.1202H50.4654L50.1596 31.3471H49.4255Z" fill="#E31E24"/>
<path d="M56.1543 27.7278H56.8883C56.0931 28.9547 54.992 30.4269 54.1357 31.3471H53.2793C53.5239 31.1017 53.891 30.7337 54.1357 30.4269C54.0745 29.7521 53.8298 28.4639 53.5851 27.7278H54.3803C54.5638 28.2799 54.6862 29.016 54.7474 29.6908C55.2979 29.016 55.7872 28.2799 56.1543 27.7278Z" fill="#E31E24"/>
<path d="M57.3165 31.3471H56.5825L57.5612 27.7278H60.4974L59.5186 31.3471H58.8458L59.641 28.3412H58.1117L57.3165 31.3471Z" fill="#E31E24"/>
<path d="M61.3537 31.3471H60.6808L61.6596 27.7278H64.5346L63.617 31.3471H62.9441L63.7394 28.3412H62.1489L61.3537 31.3471Z" fill="#E31E24"/>
<path d="M66.7979 28.3412C66.492 28.8319 66.1862 29.3227 65.8191 29.8748H67.0425C66.9814 29.3227 66.9814 28.7706 66.9202 28.3412H66.7979ZM67.1037 30.4882H65.5133C65.3298 30.7949 65.1463 31.1017 65.0239 31.4084H64.2899C64.9016 30.3042 65.8191 28.8319 66.5532 27.7891H67.6542C67.7154 28.9546 67.8378 30.4269 68.0213 31.4084H67.2872C67.1649 31.1017 67.1037 30.7949 67.1037 30.4882Z" fill="#E31E24"/>
<path d="M72.4255 31.3471C72.242 29.9362 71.9973 29.6908 71.3856 29.6295L70.9574 31.3471H70.2846L71.2633 27.7278H71.9362L71.508 29.5068C71.875 29.2 72.6702 28.5253 73.4043 27.7278H74.2606C73.3431 28.648 72.7314 29.2001 72.4867 29.3841C72.8537 29.5068 73.1596 29.7521 73.4043 31.4085H72.4255V31.3471Z" fill="#E31E24"/>
<path d="M76.9521 29.5067C77.258 28.4025 77.0745 28.2184 76.2793 28.2184C75.4841 28.2184 75.2394 28.4025 74.9335 29.5067C74.6277 30.6109 74.8112 30.7949 75.6064 30.7949C76.4016 30.7949 76.6463 30.6109 76.9521 29.5067ZM77.6862 29.5067C77.3192 30.9789 76.5851 31.4083 75.4841 31.4083C74.3218 31.4083 73.8936 30.9789 74.2607 29.5067C74.6277 28.0344 75.3005 27.605 76.4628 27.605C77.625 27.6663 78.0532 28.0344 77.6862 29.5067Z" fill="#E31E24"/>
<path d="M82.0904 27.7278H83.008L82.0293 31.3471H81.3564L82.0904 28.648C81.6011 29.3841 80.9282 30.3043 80.4388 31.0404H79.8883C79.766 30.3043 79.6436 29.3841 79.5213 28.648L78.7873 31.3471H78.1144L79.0931 27.7278H80.0107C80.1942 28.4639 80.3165 29.3227 80.4388 30.0589C80.9894 29.3227 81.6011 28.4026 82.0904 27.7278Z" fill="#E31E24"/>
<path d="M83.9256 31.3471H83.1915L84.1703 27.7278H87.1064L86.1277 31.3471H85.4548L86.25 28.3412H84.7208L83.9256 31.3471Z" fill="#E31E24"/>
<path d="M89.3085 28.3412C89.0027 28.8319 88.6968 29.3227 88.3298 29.8748H89.5532C89.492 29.3227 89.492 28.7706 89.4309 28.3412H89.3085ZM89.6144 30.4882H88.0239C87.8404 30.7949 87.6569 31.1017 87.5346 31.4084H86.8005C87.4122 30.3042 88.3298 28.8319 89.0638 27.7891H90.1649C90.2261 28.9546 90.3484 30.4269 90.5319 31.4084H89.7979C89.6755 31.1017 89.6755 30.7949 89.6144 30.4882Z" fill="#E31E24"/>
<path d="M91.8165 31.3471H91.0825L92.0612 27.7278H92.7341L92.367 29.1387H93.8963L94.2633 27.7278H94.9362L94.0186 31.3471H93.3458L93.774 29.7522H92.1835L91.8165 31.3471Z" fill="#E31E24"/>
<path d="M98.3005 31.3471H97.6277L98.3005 28.7093C97.5665 29.5681 96.8324 30.4883 96.0984 31.3471H95.1808L96.1596 27.7278H96.8324L96.0984 30.4883C96.8936 29.5681 97.6888 28.648 98.4229 27.7278H99.2792L98.3005 31.3471Z" fill="#E31E24"/>
<path d="M101.91 26.8076C101.848 27.053 101.971 27.1143 102.154 27.1143C102.399 27.1143 102.521 27.053 102.582 26.8076H103.011C102.888 27.2984 102.521 27.5438 102.032 27.5438C101.543 27.5438 101.298 27.2984 101.42 26.8076H101.91ZM102.582 31.3471H101.91L102.582 28.7093C101.848 29.5681 101.114 30.4883 100.38 31.3471H99.4628L100.441 27.7278H101.114L100.38 30.4883C101.176 29.5681 101.971 28.648 102.705 27.7278H103.561L102.582 31.3471Z" fill="#E31E24"/>
</g>
<defs>
<clipPath id="clip0_1_461">
<rect width="118" height="48" fill="white"/>
</clipPath>
</defs>
</svg>
